<?xml version="1.0" encoding="UTF-8"?>
<svg width="60px" height="60px" viewBox="0 0 60 60" version="1.1" xmlns="http://www.w3.org/2000/svg" xmlns:xlink="http://www.w3.org/1999/xlink">
    <!-- Generator: Sketch 49 (51002) - http://www.bohemiancoding.com/sketch -->
    <title>教学苑未点击</title>
    <desc>Created with Sketch.</desc>
    <defs></defs>
    <g id="教学苑未点击" stroke="none" stroke-width="1" fill="none" fill-rule="evenodd">
        <g id="Group" transform="translate(4.000000, 1.000000)" fill="#B3B3B3" fill-rule="nonzero">
            <path d="M6.36363636,4.88038278 C5.00802834,4.88038278 3.90909091,5.97289367 3.90909091,7.32057416 L3.90909091,48.8038278 C3.90909091,50.1515082 5.00802834,51.2440191 6.36363636,51.2440191 L33.3636364,51.2440191 C34.7192444,51.2440191 35.8181818,50.1515082 35.8181818,48.8038278 L35.8181818,7.32057416 C35.8181818,5.97289367 34.7192444,4.88038278 33.3636364,4.88038278 L6.36363636,4.88038278 Z M6.36363636,1.22009569 L33.3636364,1.22009569 C36.7526564,1.22009569 39.5,3.95137294 39.5,7.32057416 L39.5,48.8038278 C39.5,52.173029 36.7526564,54.9043062 33.3636364,54.9043062 L6.36363636,54.9043062 C2.97461631,54.9043062 0.227272727,52.173029 0.227272727,48.8038278 L0.227272727,7.32057416 C0.227272727,3.95137294 2.97461631,1.22009569 6.36363636,1.22009569 Z" id="Rectangle-3"></path>
            <path d="M44.4090909,53.5134588 L49.3181818,42.3582981 L49.3181818,8.54066986 C49.3181818,5.84530888 47.120307,3.66028708 44.4090909,3.66028708 C41.6978749,3.66028708 39.5,5.84530888 39.5,8.54066986 L39.5,42.3582981 L44.4090909,53.5134588 Z M44.4090909,0 C49.153719,-1.08366267e-15 53,3.82378814 53,8.54066986 L53,42.6766645 C53,43.0941633 52.8922515,43.5046799 52.6870602,43.8689502 L46.5506966,57.2028531 C45.8883419,58.3787125 44.3925679,58.7981303 43.2097917,58.1396491 C42.814802,57.9197483 42.4886795,57.595533 42.2674852,57.2028531 L36.1311216,43.8689502 C35.9259303,43.5046799 35.8181818,43.0941633 35.8181818,42.6766645 L35.8181818,8.54066986 C35.8181818,3.82378814 39.6644628,1.08366267e-15 44.4090909,0 Z" id="Rectangle-7"></path>
            <path d="M50.5454545,10.3708134 L43.1818182,10.3708134 C42.1651122,10.3708134 41.3409091,11.1901966 41.3409091,12.2009569 C41.3409091,13.2117173 42.1651122,14.0311005 43.1818182,14.0311005 L50.5454545,14.0311005 C51.5621606,14.0311005 52.3863636,13.2117173 52.3863636,12.2009569 C52.3863636,11.1901966 51.5621606,10.3708134 50.5454545,10.3708134 Z" id="Path-9"></path>
            <path d="M50.5454545,39.65311 L43.1818182,39.65311 C42.1651122,39.65311 41.3409091,40.4724932 41.3409091,41.4832536 C41.3409091,42.494014 42.1651122,43.3133971 43.1818182,43.3133971 L50.5454545,43.3133971 C51.5621606,43.3133971 52.3863636,42.494014 52.3863636,41.4832536 C52.3863636,40.4724932 51.5621606,39.65311 50.5454545,39.65311 Z" id="Path-9-Copy"></path>
            <polygon id="Path-11" points="18.6363636 2.44019139 18.6363636 52.7700631 21.8128342 52.7700631 21.8128342 2.44019139"></polygon>
            <polygon id="Path-12" points="2.98863636 10.4784689 37.3577512 10.4784689 37.3577512 7.32057416 2.98863636 7.32057416"></polygon>
            <polygon id="Path-12-Copy" points="3.90909091 47.0813397 38.2782057 47.0813397 38.2782057 43.923445 3.90909091 43.923445"></polygon>
            <path d="M7.5921076,15.5562201 L14.9812679,15.5562201 C15.6590719,15.5562201 16.2085406,15.0099646 16.2085406,14.3361244 C16.2085406,13.6622842 15.6590719,13.1160287 14.9812679,13.1160287 L7.5921076,13.1160287 C6.91430359,13.1160287 6.36483487,13.6622842 6.36483487,14.3361244 C6.36483487,15.0099646 6.91430359,15.5562201 7.5921076,15.5562201 Z" id="Path-13"></path>
            <path d="M7.5921076,20.4366029 L14.9812679,20.4366029 C15.6590719,20.4366029 16.2085406,19.8903474 16.2085406,19.2165072 C16.2085406,18.5426669 15.6590719,17.9964115 14.9812679,17.9964115 L7.5921076,17.9964115 C6.91430359,17.9964115 6.36483487,18.5426669 6.36483487,19.2165072 C6.36483487,19.8903474 6.91430359,20.4366029 7.5921076,20.4366029 Z" id="Path-13-Copy"></path>
            <path d="M24.7739258,15.5562201 L32.1630861,15.5562201 C32.8408901,15.5562201 33.3903588,15.0099646 33.3903588,14.3361244 C33.3903588,13.6622842 32.8408901,13.1160287 32.1630861,13.1160287 L24.7739258,13.1160287 C24.0961218,13.1160287 23.5466531,13.6622842 23.5466531,14.3361244 C23.5466531,15.0099646 24.0961218,15.5562201 24.7739258,15.5562201 Z" id="Path-13-Copy-3"></path>
            <path d="M24.7739258,20.4366029 L32.1630861,20.4366029 C32.8408901,20.4366029 33.3903588,19.8903474 33.3903588,19.2165072 C33.3903588,18.5426669 32.8408901,17.9964115 32.1630861,17.9964115 L24.7739258,17.9964115 C24.0961218,17.9964115 23.5466531,18.5426669 23.5466531,19.2165072 C23.5466531,19.8903474 24.0961218,20.4366029 24.7739258,20.4366029 Z" id="Path-13-Copy-2"></path>
        </g>
    </g>
</svg>