<?xml version="1.0" encoding="UTF-8"?>
<svg width="60px" height="60px" viewBox="0 0 60 60" version="1.1" xmlns="http://www.w3.org/2000/svg" xmlns:xlink="http://www.w3.org/1999/xlink">
    <!-- Generator: Sketch 49 (51002) - http://www.bohemiancoding.com/sketch -->
    <title>错题管理未点击</title>
    <desc>Created with Sketch.</desc>
    <defs></defs>
    <g id="错题管理未点击" stroke="none" stroke-width="1" fill="none" fill-rule="evenodd">
        <g id="Group" transform="translate(3.000000, 1.000000)" fill="#B3B3B3" fill-rule="nonzero">
            <path d="M6.8547302,10.6538462 L48.1452698,10.6538462 C51.619343,10.6538462 54.4270833,13.4961219 54.4270833,17.0009261 L54.4270833,52.075997 C54.4270833,55.5718882 51.6133419,58.4230769 48.1452698,58.4230769 L6.8547302,58.4230769 C3.38065701,58.4230769 0.572916667,55.5808012 0.572916667,52.075997 L0.572916667,17.0009261 C0.572916667,13.5050349 3.38665806,10.6538462 6.8547302,10.6538462 Z M6.8547302,14.1153846 C5.28996464,14.1153846 4.01041667,15.4119617 4.01041667,17.0009261 L4.01041667,52.075997 C4.01041667,53.6731075 5.28319238,54.9615385 6.8547302,54.9615385 L48.1452698,54.9615385 C49.7100354,54.9615385 50.9895833,53.6649613 50.9895833,52.075997 L50.9895833,17.0009261 C50.9895833,15.4038155 49.7168076,14.1153846 48.1452698,14.1153846 L6.8547302,14.1153846 Z" id="Rectangle-234"></path>
            <polygon id="Rectangle-235" points="2.06248601 29 2.44482381 28.6538462 22.3051482 28.6538462 22.687486 29 22.687486 31.7692308 22.3051482 32.1153846 2.44482381 32.1153846 2.06248601 31.7692308"></polygon>
            <polygon id="Rectangle-238" points="32.4079861 29 32.7903239 28.6538462 52.6506483 28.6538462 53.0329861 29 53.0329861 31.7692308 52.6506483 32.1153846 32.7903239 32.1153846 32.4079861 31.7692308"></polygon>
            <path d="M24.5273609,24.8461538 L30.4726391,24.8461538 C31.706223,24.8461538 32.7517361,25.8737255 32.7517361,27.1412995 L32.7517361,33.6279313 C32.7517361,34.9008413 31.7313496,35.9230769 30.4726391,35.9230769 L24.5273609,35.9230769 C23.293777,35.9230769 22.2482639,34.8955052 22.2482639,33.6279313 L22.2482639,27.1412995 C22.2482639,25.8683894 23.2686504,24.8461538 24.5273609,24.8461538 Z M26.624155,27.6153846 C25.3675986,27.6153846 24.3489583,28.6312238 24.3489583,29.9321001 L24.3489583,30.8371306 C24.3489583,32.1166173 25.3896192,33.1538462 26.624155,33.1538462 L28.375845,33.1538462 C29.6324014,33.1538462 30.6510417,32.1380069 30.6510417,30.8371306 L30.6510417,29.9321001 C30.6510417,28.6526135 29.6103808,27.6153846 28.375845,27.6153846 L26.624155,27.6153846 Z" id="Rectangle-236"></path>
            <path d="M16.6925962,9.58619079 C17.1007084,4.73068862 20.5756639,0.961538462 24.7590544,0.961538462 L30.2409456,0.961538462 C34.4348531,0.961538462 37.9021051,4.71874569 38.307769,9.58643685 L37.9652231,9.96153846 L35.6629201,9.96153846 L35.3285411,9.69565912 C34.5927502,6.58774804 32.2239646,4.42307692 29.5013767,4.42307692 L25.4986233,4.42307692 C22.7881883,4.42307692 20.412598,6.59371558 19.6731622,9.69616938 L19.3389045,9.96153846 L17.0351215,9.96153846 L16.6925962,9.58619079 Z" id="Rectangle-240"></path>
        </g>
    </g>
</svg>