<?xml version="1.0" encoding="UTF-8"?>
<svg width="60px" height="60px" viewBox="0 0 60 60" version="1.1" xmlns="http://www.w3.org/2000/svg" xmlns:xlink="http://www.w3.org/1999/xlink">
    <!-- Generator: Sketch 49 (51002) - http://www.bohemiancoding.com/sketch -->
    <title>班级管理未点击</title>
    <desc>Created with Sketch.</desc>
    <defs></defs>
    <g id="班级管理未点击" stroke="none" stroke-width="1" fill="none" fill-rule="evenodd">
        <g id="Group" transform="translate(4.000000, 1.000000)" fill="#B3B3B3">
            <path d="M22.3512803,3.91447368 C18.8919495,5.14589457 16.2704215,6.70606367 14.4704621,8.57298131 C12.6615673,10.4491668 11.5227896,12.7604944 11.0448339,15.5504167 C10.9257465,16.2455536 10.3821216,16.7924602 9.68436025,16.9191032 C7.44843213,17.324922 6.55179701,18.2672146 6.53035145,20.0581324 C6.50942361,21.8058162 7.36596668,22.6822892 9.63368169,23.0233157 C10.3712021,23.1342265 10.9479857,23.7133531 11.0522281,24.4476245 C12.0408664,31.411473 14.8575989,35.6579663 19.4993005,37.4508509 C20.9282279,38.0027825 21.8007087,39.4457243 21.6206375,40.9591982 C21.4025136,42.7924996 19.7307562,44.1028917 17.8866939,43.8860209 C11.7667767,43.1663722 7.91612609,43.2016749 6.7603143,43.8124496 C5.18475918,44.6450326 4.10025764,48.0638269 3.93770184,54.0949958 C3.9375,54.4188533 4.18936728,54.6692476 4.50005894,54.6692476 L47.8222672,54.6691867 C48.1999105,54.6268508 48.4187832,54.3475332 48.3804774,54.0410128 C47.6375435,48.094821 46.6619005,44.577458 46.188676,44.3160929 C44.2409905,43.2403732 39.4507938,43.062505 32.069137,43.9527292 C30.7405246,44.1129675 29.4455098,43.4623706 28.7871992,42.3039308 C27.8876223,40.7209308 28.4491949,38.7126692 30.0415067,37.8183531 L30.3519985,37.6828661 C35.6970938,35.9632794 38.5753269,31.709845 39.0654842,24.5678788 C39.1197764,23.7768003 39.7237684,23.1315343 40.5135435,23.0208658 C42.8885028,22.6880709 43.790903,21.7140516 43.734023,19.6862667 C43.6781063,17.6928208 42.8802542,16.9463814 40.74907,16.9463814 C39.8170895,16.9463814 39.06157,16.1952801 39.06157,15.2687498 L39.06157,14.1988291 C39.06157,13.7550188 39.238464,13.3292913 39.5535196,13.0148631 C42.7421785,9.83255412 44.8339693,7.32213891 45.8074451,5.54697723 C46.2149631,4.80385622 45.969852,4.45121632 43.8763236,3.91447368 L22.3512803,3.91447368 Z M12.0339501,6.25125123 C14.2821391,3.91942983 17.4453322,2.06120104 21.5060204,0.652837677 C21.6847152,0.590861197 21.8726239,0.559210526 22.0618809,0.559210526 L44.0870497,0.559210526 L44.4961564,0.60925763 C48.6242738,1.63479315 50.4856203,4.02579326 48.7706844,7.1530292 C47.7751013,8.96850415 45.9664258,11.2278063 43.3311516,13.9708363 C45.6823544,14.7478357 47.0263985,16.6939095 47.1077115,19.5927373 C47.2018389,22.9484024 45.487691,25.2027597 42.3187583,26.0716955 C41.5081205,33.391775 38.1605147,38.3020314 32.333589,40.5429425 C40.032891,39.6600441 45.1206953,39.8879569 47.8277209,41.3830652 C49.7525917,42.4461842 50.8082219,46.251915 51.7297336,53.6273831 C51.9978489,55.772829 50.4656976,57.728106 48.3076267,57.994597 C48.1466134,58.0144799 47.9845178,58.0244498 47.8222696,58.0244498 L4.50006132,58.0245108 C2.32540625,58.0245108 0.5625,56.2719139 0.5625,54.1099761 C0.756968448,46.8423437 2.15077574,42.4484906 5.1762268,40.8497278 C7.18072101,39.7904772 11.3771345,39.7470347 18.1849952,40.542482 C12.6292049,38.3576098 9.20043802,33.4637508 7.89605068,26.0840264 C4.82267812,25.2468965 3.118128,23.1466908 3.15559058,20.0181922 C3.1928566,16.9061072 4.89790993,14.7881768 7.93925833,13.8873592 C8.6292539,10.9202897 9.99634763,8.36465225 12.0339501,6.25125123 Z" id="Path-10" fill-rule="nonzero"></path>
            <ellipse id="Oval-3" cx="19.125" cy="21.25" rx="3.375" ry="3.35526316"></ellipse>
            <ellipse id="Oval-3-Copy" cx="30.375" cy="21.25" rx="3.375" ry="3.35526316"></ellipse>
        </g>
    </g>
</svg>