<?xml version="1.0" encoding="UTF-8"?>
<svg width="60px" height="60px" viewBox="0 0 60 60" version="1.1" xmlns="http://www.w3.org/2000/svg" xmlns:xlink="http://www.w3.org/1999/xlink">
    <!-- Generator: Sketch 49 (51002) - http://www.bohemiancoding.com/sketch -->
    <title>作业管理点击</title>
    <desc>Created with Sketch.</desc>
    <defs></defs>
    <g id="作业管理点击" stroke="none" stroke-width="1" fill="none" fill-rule="evenodd">
        <g id="Group" transform="translate(4.000000, 0.000000)" fill="#2B6BCE" fill-rule="nonzero">
            <path d="M20.9459494,34.4793478 L38.3823374,18.9338446 C39.1385423,18.2596462 40.3024856,18.3212603 40.9820776,19.0714636 C41.6616696,19.8216668 41.5995626,20.9763725 40.8433578,21.6505709 L20.779707,39.538424 L10.7325117,29.331544 C10.022174,28.6099165 10.0360061,27.4536496 10.7634066,26.7489495 C11.490807,26.0442493 12.6563241,26.0579716 13.3666618,26.7795991 L20.9459494,34.4793478 Z" id="Path-3"></path>
            <path d="M5.24380165,4.46428571 C4.56599764,4.46428571 4.01652893,5.00939357 4.01652893,5.68181818 L4.01652893,54.3831169 C4.01652893,55.0555415 4.56599764,55.6006494 5.24380165,55.6006494 L38.0213441,55.6006494 C38.3375768,55.6006494 38.6416046,55.4795506 38.8700356,55.2626029 L47.8197659,46.7627813 C48.0615898,46.533114 48.1983471,46.2154117 48.1983471,45.8832953 L48.1983471,5.68181818 C48.1983471,5.00939357 47.6488784,4.46428571 46.9710744,4.46428571 L5.24380165,4.46428571 Z M5.24380165,0.811688312 L46.9710744,0.811688312 C49.6822904,0.811688312 51.8801653,2.99211972 51.8801653,5.68181818 L51.8801653,45.8832953 C51.8801653,47.211761 51.3331361,48.4825702 50.3658404,49.4012393 L41.4161101,57.9010609 C40.502386,58.7688516 39.2862748,59.2532468 38.0213441,59.2532468 L5.24380165,59.2532468 C2.53258561,59.2532468 0.334710744,57.0728153 0.334710744,54.3831169 L0.334710744,5.68181818 C0.334710744,2.99211972 2.53258561,0.811688312 5.24380165,0.811688312 Z" id="Rectangle-5"></path>
            <path d="M49.6911619,42.2754329 C50.707868,42.2754329 51.532071,43.0930947 51.532071,44.1017316 C51.532071,45.1103685 50.707868,45.9280303 49.6911619,45.9280303 L42.731405,45.9280303 C41.0368949,45.9280303 39.6632231,47.2907999 39.6632231,48.9718615 L39.6632231,54.8054344 C39.6632231,55.8140713 38.8390201,56.6317331 37.822314,56.6317331 C36.805608,56.6317331 35.981405,55.8140713 35.981405,54.8054344 L35.981405,48.9718615 C35.981405,45.2735261 39.0034829,42.2754329 42.731405,42.2754329 L49.6911619,42.2754329 Z" id="Path-2"></path>
        </g>
    </g>
</svg>