<?xml version="1.0" encoding="UTF-8"?>
<svg width="60px" height="60px" viewBox="0 0 60 60" version="1.1" xmlns="http://www.w3.org/2000/svg" xmlns:xlink="http://www.w3.org/1999/xlink">
    <!-- Generator: Sketch 49 (51002) - http://www.bohemiancoding.com/sketch -->
    <title>组题管理未点击</title>
    <desc>Created with Sketch.</desc>
    <defs></defs>
    <g id="组题管理未点击" stroke="none" stroke-width="1" fill="none" fill-rule="evenodd">
        <g id="Group" transform="translate(3.000000, 0.000000)" fill="#B3B3B3" fill-rule="nonzero">
            <path d="M12.3359191,21.8000491 L16.4750837,16.4782661 C16.9773527,15.8317859 17.8927835,15.7273592 18.5234681,16.2440627 C19.1514057,16.7618955 19.2532004,17.7036414 18.7502555,18.350755 L14.4917085,23.8253896 C13.9322619,24.5443006 13.1440028,24.95776 12.3142222,24.95776 C12.2644597,24.9578271 12.2644597,24.9578271 12.2031247,24.9553877 C11.3338789,24.9165484 10.5380051,24.4278058 10.0183117,23.6267502 L8.56530986,21.3852961 C8.11864263,20.6961524 8.29988139,19.7649411 8.96927176,19.3068726 C9.63798473,18.8470702 10.5441498,19.0339478 10.990225,19.7226492 L12.3359191,21.8000491 Z" id="Shape"></path>
            <path d="M22.7380817,22.74656 C21.6796731,22.74656 20.7667211,22.1292713 20.7652444,21.24768 C20.7652444,20.3679071 21.6791458,19.74944 22.7371368,19.74944 L40.2366853,19.74944 C41.2946764,19.74944 42.2085777,20.3679071 42.2085777,21.24768 C42.2085777,22.1284129 41.2951492,22.74656 40.2366853,22.74656 L22.7380817,22.74656 Z" id="Shape"></path>
            <path d="M16.4758823,28.5157598 C16.978481,27.8697945 17.8940236,27.7653546 18.5232109,28.2817708 C19.1517188,28.7991329 19.2532126,29.7412961 18.7508218,30.3898164 L14.4924942,35.8635495 C13.9334854,36.5828445 13.1450626,36.9968 12.3148294,36.9968 C12.2522512,36.9958874 12.2522512,36.9958874 12.2045241,36.9931824 C11.3357611,36.9558848 10.5388171,36.4659888 10.0188487,35.6637488 L8.56663488,33.4238218 C8.11942714,32.7343119 8.30024181,31.8038222 8.97062756,31.3441275 C9.63978802,30.8859015 10.5438511,31.0718809 10.990769,31.7609439 L12.3369384,33.8379011 L16.4758823,28.5157598 Z" id="Shape"></path>
            <path d="M22.7380817,34.7856 C21.6794698,34.7856 20.7652444,34.1674498 20.7652444,33.28672 C20.7652444,32.4059871 21.6786729,31.78784 22.7371368,31.78784 L40.2366853,31.78784 C41.2951492,31.78784 42.2085777,32.4059871 42.2085777,33.28672 C42.2085777,34.1674529 41.2951492,34.7856 40.2366853,34.7856 L22.7380817,34.7856 Z" id="Shape"></path>
            <path d="M16.4752908,40.5535198 C16.9782507,39.9070926 17.8943133,39.8025938 18.5228206,40.3203297 C19.1514523,40.8368498 19.2534736,41.7806923 18.7502887,42.4262323 L14.4917458,47.9021417 C13.9327739,48.620631 13.1438105,49.03456 12.3142222,49.03456 C12.2532961,49.0336781 12.2532961,49.0336781 12.204726,49.0316165 C11.3350086,48.9935018 10.5382697,48.5037336 10.0183117,47.7022702 L8.56547331,45.4617081 C8.11848137,44.7730055 8.29991881,43.8407735 8.96927176,43.3836726 C9.63781216,42.9239889 10.5438636,43.1099685 10.9901909,43.7981165 L12.3367883,45.8763174 L16.4752908,40.5535198 Z" id="Shape"></path>
            <path d="M22.7380817,46.82464 C21.6794698,46.82464 20.7652444,46.2064898 20.7652444,45.32576 C20.7652444,44.4450238 21.6788208,43.82624 22.7371368,43.82624 L40.2366853,43.82624 C41.2950013,43.82624 42.2085777,44.4450238 42.2085777,45.32576 C42.2085777,46.2064929 41.2951492,46.82464 40.2366853,46.82464 L22.7380817,46.82464 Z" id="Shape"></path>
            <path d="M45.1042254,5.4744918 C49.954743,5.4744918 53.935911,8.83217911 53.935911,13.0216656 L53.935911,50.9734557 C53.935911,55.1624179 49.9546233,58.52 45.1042254,58.52 L9.10093001,58.52 C4.25013983,58.52 0.268442791,55.1620727 0.269244438,50.9728262 L0.269244438,13.0210361 C0.269244438,8.8315496 4.25041238,5.4738623 9.10093001,5.4738623 L11.1099448,5.4738623 C11.4372314,2.89063732 13.9821588,0.92 17.0212071,0.92 L37.1839483,0.92 C40.2221864,0.92 42.767858,2.89111531 43.0952076,5.4744918 L45.1042254,5.4744918 Z M17.6281939,4.32 C15.7945129,4.32 14.2692443,5.42563432 14.2692443,6.83439074 L14.2692443,8.30560926 C14.2692443,9.71436568 15.7945129,10.82 17.6281939,10.82 L36.5769614,10.82 C38.4106424,10.82 39.935911,9.71436568 39.935911,8.30560926 L39.935911,6.83439074 C39.935911,5.42563432 38.4106424,4.32 36.5769614,4.32 L17.6281939,4.32 Z M9.10093001,9.4231082 C6.00991948,9.4231082 3.53055092,11.5141114 3.53055092,14.0216656 L3.53055092,49.9734557 C3.53055092,52.4811831 6.01013907,54.5720131 9.10093001,54.5720131 L45.1042254,54.5720131 C48.195719,54.5720131 50.6746045,52.4812381 50.6746045,49.9734557 L50.6746045,14.0216656 C50.6746045,11.5137101 48.1954994,9.4231082 45.1042254,9.4231082 L43.0952031,9.4231082 C42.7678564,12.0061642 40.2225171,13.9769705 37.1839483,13.9769705 L17.0212071,13.9769705 C13.9826383,13.9769705 11.437299,12.0061642 11.1099523,9.4231082 L9.10093001,9.4231082 Z" id="Shape"></path>
        </g>
    </g>
</svg>